<?xml version="1.0" encoding="UTF-8"?>
<svg width="512" height="512" version="1.1" viewBox="0 0 135.47 135.47" xmlns="http://www.w3.org/2000/svg">
<filter id="d" x="-.32023" y="-.32023" width="1.6405" height="1.6405" color-interpolation-filters="sRGB">
<feFlood flood-opacity=".89804" result="flood"/>
<feComposite in="flood" in2="SourceGraphic" operator="out" result="composite1"/>
<feGaussianBlur in="composite1" result="blur" stdDeviation="5"/>
<feOffset dx="-0" dy="0" result="offset"/>
<feComposite in="offset" in2="SourceGraphic" operator="in" result="composite2"/>
</filter>
<filter id="c" x="-.010299" y="-.010299" width="1.0206" height="1.0206" color-interpolation-filters="sRGB">
<feFlood flood-opacity=".89804" result="flood"/>
<feComposite in="flood" in2="SourceGraphic" operator="in" result="composite1"/>
<feGaussianBlur in="composite1" result="blur" stdDeviation=".00023253779"/>
<feOffset dx="-0" dy="0" result="offset"/>
<feComposite in="SourceGraphic" in2="offset" result="composite2"/>
</filter>
<g transform="matrix(2.5136 0 0 2.5136 22.489 22.489)">
<path d="m18-0.73651c-10.339 0-18.737 8.3971-18.737 18.737 0 10.339 8.3971 18.737 18.737 18.737 10.339 0 18.737-8.3971 18.737-18.737 0-10.339-8.3971-18.737-18.737-18.737zm0 1.4727c9.543 1e-8 17.264 7.7208 17.264 17.264 0 9.543-7.7208 17.264-17.264 17.264-9.543 0-17.264-7.7208-17.264-17.264 1e-8 -9.543 7.7208-17.264 17.264-17.264z" fill="#fff"/>
<path d="m35.341 18a17.341 17.341 0 0 1-17.341 17.341 17.341 17.341 0 0 1-17.341-17.341 17.341 17.341 0 0 1 17.341-17.341 17.341 17.341 0 0 1 17.341 17.341z" fill="#678dff" stroke-width="1.4197"/>
<path d="m24.958 2.1729c-1.022 0.568-1.872 1.528-3.028 1.181-1.875-0.562-4.375-1.812-6-0.25s-2 3 0 2.938 3.375-2.438 4.375-1.438 0.749 1.813-1.625 2.125-4.938 0.688-6.313 0.688-1.688 0.812-0.75 1.688-0.563 0.937-2.125 1.812c-1.562 0.875 0.375 1.25 1.688 2 1.313 0.75 2.312-0.188 2.875-1.438s2.981-2.75 3.99-2.562c1.01 0.188 1.01 0.688 0.822 1.562-0.188 0.874 0.75 0.625 0.812-0.375 0.062-1 1.188-1.75 2.062-1.812s1.625 1.188 0.625 1.812c-1 0.624-2 1.125-0.75 1.438s2.125 1.938 0.688 2.625-3.937 1.125-5.062 0.562-3.688-1.375-4.375-0.938-1.062 0.89-1.875 1.195c-0.812 0.305-4.125 1.805-4.188 3.743s-0.124 4.126 1.188 4.188 4.5-0.812 5.5-1.625 2.375-0.625 2.812 0.312 0.125 1.5-0.312 3 0.286 2.25 0.987 3.562 1.263 2.062 1.263 3 1 1.875 2.5 0.312 2.875-4.625 3.5-5.75 1.125-3.625 1.875-4.125 1.938-1.688 1.062-1.5-2.625-0.062-3.062-1.312-2.312-3.625-1.438-3.875 1.875 1.39 2.25 2.164 0.875 1.711 1.625 1.961 2.375-1.673 2.875-1.961c0.5-0.289 0.125-1.476-0.875-1.351s-2.312 0-2.312-0.624 1.25-1.438 2.25-1.25 1.75 0.5 2.375 1.25 1.875 2.125 2.375 3 0.875 1 1.125-0.562c0.166-1.038 0.387-1.609 0.59-2.222-1.013-5.829-4.82-10.683-9.999-13.148z" fill="#80d12e" stroke="#80d12e" stroke-width=".67367"/>
</g>
<g fill="#fff">
<path transform="matrix(2.5136 0 0 2.5136 22.489 22.489)" d="m18-0.7363c-10.339 0-18.736 8.397-18.736 18.736 0 10.339 8.397 18.736 18.736 18.736 10.339 0 18.736-8.397 18.736-18.736 0-10.339-8.397-18.736-18.736-18.736zm6.9472 2.5606 0.14453 0.068255c5.2685 2.5076 9.1414 7.4453 10.172 13.375l0.01172 0.07627-0.02344 0.07422c-0.20605 0.62222-0.4161 1.1608-0.57811 2.1739-0.06452 0.4031-0.13716 0.70549-0.23046 0.93748s-0.21206 0.43379-0.45908 0.50575c-0.12351 0.03599-0.25778 0.01785-0.35937-0.02734s-0.17946-0.11055-0.25185-0.18359c-0.14478-0.14609-0.26877-0.33384-0.40049-0.56434-0.45891-0.8031-1.7078-2.1921-2.3437-2.9551-0.5739-0.68868-1.2289-0.96283-2.1953-1.1445-0.39693-0.07462-0.89877 0.05634-1.2833 0.2831-0.38451 0.22675-0.59764 0.55754-0.59764 0.6622 0 0.04719 0.0042 0.06422 0.08799 0.12315 0.08377 0.05893 0.24444 0.1244 0.4453 0.16591 0.40173 0.08303 0.95889 0.08434 1.4297 0.02549 0.62478-0.0781 1.1107 0.2738 1.3164 0.69139 0.10283 0.20879 0.14817 0.43598 0.11924 0.65809s-0.14809 0.45342-0.36739 0.58017c-0.05853 0.03371-0.26585 0.20711-0.49794 0.42187-0.23209 0.21476-0.51014 0.47731-0.79892 0.72655-0.28877 0.24924-0.58649 0.48438-0.88465 0.65233-0.29816 0.16795-0.61464 0.29634-0.94735 0.18544-0.93154-0.31051-1.4253-1.3381-1.8047-2.1211-0.17775-0.36688-0.51622-0.95577-0.89452-1.3984-0.18915-0.22132-0.3899-0.40604-0.5664-0.50965-0.17572-0.10317-0.30719-0.12476-0.42392-0.0919-0.0029 0.0126-0.01023 0.06991 0.01172 0.17187 0.04638 0.21546 0.20206 0.56565 0.40439 0.94735 0.40467 0.76341 0.98466 1.6556 1.2286 2.3534 0.17804 0.50926 0.62694 0.82764 1.1698 1.0039 0.54286 0.17625 1.1643 0.1867 1.5333 0.10752 0.13526-0.02908 0.25079-0.04663 0.39452-0.0021 0.07187 0.02228 0.1537 0.06964 0.21093 0.14658 0.05723 0.07695 0.0799 0.17065 0.07997 0.24403 1.48e-4 0.14677-0.04976 0.23738-0.10341 0.33018-0.05365 0.0928-0.12128 0.18422-0.19922 0.27734-0.31177 0.37246-0.80053 0.7954-1.207 1.0664-0.10137 0.06759-0.26463 0.27697-0.41611 0.57812-0.15148 0.30114-0.30035 0.68607-0.44715 1.0956-0.29361 0.81902-0.56935 1.7268-0.9122 2.3439-0.30136 0.54246-0.80697 1.5994-1.4218 2.7109-0.61488 1.1115-1.3376 2.2832-2.125 3.1036-0.79533 0.82873-1.5551 1.069-2.1426 0.85936-0.58753-0.20966-0.89266-0.80735-0.89266-1.3867 0-0.81397-0.51621-1.5241-1.2265-2.8536-0.34118-0.63855-0.70313-1.1564-0.93543-1.7422-0.23229-0.58576-0.31152-1.2453-0.07627-2.0528 0.22113-0.75903 0.40609-1.2755 0.47655-1.6778 0.07046-0.40232 0.05009-0.6842-0.14638-1.1054-0.16913-0.36264-0.51584-0.58265-0.95126-0.63465s-0.94778 0.07842-1.3846 0.43359c-0.58306 0.47403-1.6359 0.8789-2.7423 1.1971-1.1064 0.31829-2.2321 0.53094-2.9687 0.49613-0.41413-0.01957-0.76281-0.23095-0.98436-0.53515-0.22155-0.3042-0.34079-0.68625-0.41591-1.1112-0.15023-0.84991-0.11355-1.8918-0.08203-2.8614 0.037158-1.1431 0.97489-2.0503 1.9453-2.7286 0.97039-0.67828 2.0105-1.1323 2.4432-1.2948 0.74772-0.28051 1.0926-0.70441 1.8184-1.1661 0.28227-0.17956 0.61837-0.19131 1.002-0.16591 0.38366 0.0254 0.81782 0.10817 1.2635 0.2206 0.89144 0.22485 1.8206 0.57018 2.414 0.86717 0.45136 0.22588 1.3215 0.27904 2.2345 0.1583 0.91301-0.12073 1.8762-0.39829 2.5546-0.72264 0.30521-0.14591 0.45107-0.31745 0.51952-0.49033 0.06846-0.17288 0.063-0.36546-0.01377-0.57421-0.15354-0.41751-0.61591-0.84871-1.1346-0.9786-0.3409-0.08536-0.57922-0.16494-0.73436-0.40028-0.07757-0.11767-0.1009-0.28339-0.0664-0.41015 0.03451-0.12676 0.10168-0.21868 0.17578-0.30078 0.29638-0.32839 0.79291-0.58552 1.2851-0.89267 0.19569-0.12211 0.2777-0.24748 0.31249-0.37294 0.03479-0.12545 0.01972-0.26304-0.04112-0.39843-0.12168-0.27079-0.42506-0.48702-0.70887-0.46689-0.35823 0.025412-0.81446 0.20548-1.164 0.48642-0.34958 0.28094-0.58731 0.64623-0.61142 1.0351-0.03689 0.59494-0.30977 1.0231-0.70496 1.164-0.1976 0.07046-0.48213 0.02284-0.62704-0.17187-0.14491-0.19472-0.15128-0.43383-0.09375-0.70126 0.09144-0.4251 0.11024-0.71796 0.05469-0.8573-0.05555-0.13934-0.17258-0.24914-0.6289-0.33408-0.15719-0.029289-0.45972 0.0092-0.80858 0.13281-0.34885 0.12361-0.74719 0.32314-1.1309 0.5664-0.7675 0.48652-1.4787 1.17-1.7109 1.6856-0.2978 0.66118-0.71165 1.2585-1.2773 1.6054-0.56568 0.34694-1.3008 0.39419-2.0351-0.02529-0.61875-0.35343-1.4172-0.62417-1.9375-0.96503-0.13006-0.085214-0.24637-0.17617-0.33984-0.29687-0.093466-0.1207-0.16274-0.28848-0.14453-0.46484 0.036423-0.35272 0.31359-0.57759 0.73621-0.81434 0.81531-0.45672 1.6083-0.70275 2.0098-0.91014 0.16666-0.086089 0.22995-0.16061 0.24424-0.17228-0.0016-0.00404-0.0023-0.00678-0.0099-0.021176-0.02108-0.040247-0.07819-0.11615-0.17968-0.21093-0.25828-0.24121-0.44267-0.48788-0.54687-0.74402-0.1042-0.25615-0.12281-0.53443-0.01953-0.77733 0.10328-0.2429 0.31489-0.42631 0.57606-0.53905 0.26117-0.11275 0.579-0.16612 0.95331-0.16612 1.3184 0 3.8942-0.37115 6.2715-0.68358 1.1538-0.15164 1.7255-0.45767 1.8573-0.66405 0.06589-0.10319 0.07547-0.18296 0.01953-0.33799-0.055904-0.15502-0.19912-0.36506-0.42965-0.59559-0.18136-0.18136-0.29324-0.19064-0.52343-0.12705-0.23018 0.06359-0.5432 0.2508-0.89842 0.48642-0.71044 0.47124-1.6041 1.1332-2.7247 1.1679-0.53685 0.016642-0.94961-0.056871-1.2557-0.26562-0.30612-0.20875-0.4523-0.57462-0.42187-0.92967 0.06085-0.7101 0.61488-1.4697 1.4531-2.2755 0.89969-0.86481 2.0649-0.94993 3.1757-0.75389 1.1109 0.19604 2.2156 0.65595 3.1289 0.92967 0.4824 0.1448 0.87487 0.025416 1.3242-0.22265 0.44933-0.24807 0.91899-0.62919 1.463-0.93152z" filter="url(#d)" opacity=".53788" stroke-width="1.4737"/>
<path d="m67.734 16.326c-1.2704 0-2.3402 0.13157-3.3538 0.75086-0.95125 0.58121-1.4055 1.5103-1.5885 1.911-0.06231 0.01503-0.21537 0.04708-0.54054 0.08372-0.32301 0.03639-0.48091 0.03995-0.54622 0.03927-0.26712-0.34941-0.91751-1.1547-1.9751-1.51-1.126-0.37822-2.1964-0.26874-3.4349 0.01395-1.2385 0.28269-2.2508 0.6502-3.1011 1.4795-0.79942 0.77963-1.0392 1.788-1.1281 2.218-0.05751 0.02815-0.19946 0.09294-0.5054 0.19999-0.31233 0.10929-0.4631 0.14592-0.52452 0.15916-0.33802-0.28111-1.1501-0.91992-2.2603-1.0309-1.1819-0.11819-2.203 0.22498-3.3476 0.77618-1.1446 0.5512-2.0478 1.1344-2.6923 2.1322-0.60429 0.93549-0.61145 1.968-0.60255 2.4092-0.04922 0.0397-0.17294 0.13466-0.45372 0.31109-0.2786 0.17506-0.41662 0.24542-0.47336 0.27234-0.39172-0.19869-1.3273-0.64066-2.435-0.50178-1.1786 0.14777-2.097 0.70912-3.0903 1.5012-0.99323 0.79208-1.745 1.5623-2.1513 2.6784-0.38173 1.0486-0.15829 2.0598-0.05168 2.4862-0.038 0.04844-0.13601 0.16701-0.37155 0.40256-0.22756 0.22756-0.35018 0.32984-0.40256 0.37104-0.42736-0.10678-1.4356-0.33221-2.4831 0.04909-1.1161 0.40631-1.8863 1.1612-2.6784 2.1544-0.79208 0.99324-1.3565 1.9117-1.5043 3.0903-0.13898 1.1084 0.30432 2.0448 0.50281 2.436-0.0271 0.0583-0.09777 0.19727-0.27027 0.47181-0.17315 0.27557-0.26793 0.39916-0.30851 0.44855-0.43881-9e-3 -1.4736-8.63e-4 -2.4117 0.60513-0.99772 0.64449-1.581 1.5503-2.1322 2.6949-0.5512 1.1446-0.89695 2.1631-0.77876 3.345 0.11119 1.1119 0.75312 1.9291 1.0335 2.266-0.01346 0.05989-0.05092 0.20801-0.15968 0.51883-0.10917 0.31198-0.17467 0.45441-0.20309 0.5116-0.43167 0.08932-1.4395 0.32416-2.2174 1.1219-0.8293 0.85035-1.1937 1.8626-1.4764 3.1011-0.28269 1.2385-0.39216 2.309-0.01395 3.4349 0.35525 1.0576 1.1606 1.708 1.51 1.9751 6.72e-4 0.06531-0.0029 0.22321-0.03927 0.54622-0.03636 0.3227-0.06803 0.47729-0.0832 0.54054-0.3993 0.18223-1.3293 0.63869-1.9115 1.5916-0.61928 1.0136-0.75086 2.0803-0.75086 3.3507 0 1.2704 0.13158 2.3397 0.75086 3.3533 0.58222 0.95291 1.5122 1.4069 1.9115 1.589 0.01517 0.06325 0.04684 0.21784 0.0832 0.54054 0.03639 0.32301 0.03995 0.48091 0.03927 0.54622-0.34941 0.26712-1.1547 0.91751-1.51 1.9751-0.37822 1.126-0.26874 2.1964 0.01395 3.4349 0.28269 1.2385 0.6471 2.2508 1.4764 3.1011 0.77771 0.79745 1.7834 1.0329 2.2154 1.1224 0.03073 0.06049 0.09857 0.20649 0.20516 0.51108 0.10788 0.30832 0.14597 0.45922 0.15968 0.52142-0.28044 0.33692-0.92234 1.1516-1.0335 2.2634-0.11819 1.1819 0.22756 2.203 0.77876 3.3476 0.5512 1.1446 1.1344 2.0478 2.1322 2.6923 0.93727 0.60544 1.9707 0.61413 2.4102 0.60513 0.03929 0.04823 0.13369 0.17044 0.31006 0.45114 0.1725 0.27453 0.24317 0.41403 0.27027 0.47232-0.1988 0.39214-0.64164 1.3288-0.50281 2.436 0.14777 1.1786 0.71222 2.0965 1.5043 3.0897 0.79208 0.99323 1.5623 1.7455 2.6784 2.1518 1.048 0.3815 2.0583 0.15837 2.4851 0.0517 0.04807 0.0383 0.16594 0.137 0.40049 0.37155 0.23561 0.23561 0.33361 0.35287 0.37155 0.40049-0.10668 0.42685-0.32982 1.4372 0.05168 2.4851 0.40632 1.1161 1.1581 1.8863 2.1513 2.6784 0.99323 0.79208 1.9117 1.354 3.0903 1.5017 1.106 0.13868 2.039-0.30264 2.4319-0.50178h5.17e-4c0.06066 0.0284 0.2035 0.10063 0.47594 0.27182 0.2807 0.17637 0.40291 0.27076 0.45114 0.31006-9e-3 0.4395-2.46e-4 1.4729 0.60513 2.4102 0.64449 0.99772 1.5478 1.581 2.6923 2.1322 1.1446 0.5512 2.1657 0.89695 3.3476 0.77876 1.1103-0.11102 1.9223-0.75238 2.2603-1.0335 0.06142 0.0132 0.21218 0.0504 0.52452 0.15968 0.30594 0.10705 0.44788 0.17132 0.5054 0.19947 0.08886 0.42993 0.32867 1.4383 1.1281 2.218 0.85035 0.8293 1.8626 1.1968 3.1011 1.4795 1.2385 0.28269 2.309 0.39212 3.4349 0.0139 1.0576-0.35524 1.708-1.1606 1.9751-1.51 0.06531-6.7e-4 0.22321 3e-3 0.54622 0.0393 0.32516 0.0366 0.47823 0.0687 0.54054 0.0837 0.18301 0.40066 0.63728 1.3298 1.5885 1.911 1.0136 0.61929 2.0834 0.75086 3.3538 0.75086 1.2704 0 2.3371-0.13157 3.3507-0.75086 0.95124-0.5812 1.4055-1.5103 1.5885-1.911 0.0615-0.0148 0.21432-0.0466 0.54364-0.0837 0.32511-0.0366 0.48171-0.04 0.54622-0.0393 0.26709 0.34944 0.91446 1.1548 1.972 1.51 1.126 0.37822 2.199 0.26879 3.4375-0.0139 1.2385-0.28269 2.2513-0.6502 3.1016-1.4795 0.79892-0.77914 1.0361-1.7865 1.125-2.2169 0.05559-0.0271 0.19544-0.091 0.5085-0.20051 0.30832-0.10788 0.45922-0.14597 0.52142-0.15968 0.33799 0.28115 1.1501 0.9225 2.2603 1.0335 1.1819 0.11818 2.2035-0.22756 3.3481-0.77876 1.1446-0.55121 2.0504-1.1344 2.6949-2.1322 0.60444-0.93572 0.60841-1.9662 0.59945-2.4071 0.05231-0.0429 0.18057-0.14121 0.45424-0.31316 0.27644-0.1737 0.41734-0.24481 0.47646-0.27234 0.3928 0.19911 1.3252 0.64099 2.4314 0.5023 1.1786-0.14777 2.097-0.70964 3.0902-1.5017 0.99323-0.79208 1.745-1.5623 2.1513-2.6784 0.38161-1.0483 0.15885-2.059 0.0522-2.4856 0.0387-0.0485 0.13754-0.16648 0.37104-0.39998 0.23361-0.23361 0.3528-0.33284 0.40204-0.37155 0.42618 0.10658 1.4378 0.33016 2.4867-0.0517 1.1161-0.40632 1.8832-1.1586 2.6753-2.1518s1.3565-1.9112 1.5043-3.0897c0.13874-1.1065-0.30277-2.0424-0.50178-2.435 0.0269-0.05673 0.0973-0.19476 0.27234-0.47336 0.17721-0.28203 0.27034-0.40344 0.30851-0.45114 0.4402 9e-3 1.4753-1.58e-4 2.4117-0.60513 0.99772-0.64449 1.581-1.5478 2.1322-2.6923 0.5512-1.1446 0.89385-2.1657 0.77566-3.3476-0.11102-1.1102-0.74932-1.9228-1.0304-2.2608 0.0142-0.06536 0.053-0.22053 0.15916-0.524 0.1067-0.30491 0.17416-0.45125 0.20413-0.5116 0.43188-0.0894 1.4361-0.32446 2.2138-1.1219 0.8293-0.85035 1.1968-1.8626 1.4795-3.1011 0.28269-1.2385 0.38909-2.309 0.0109-3.4349-0.35539-1.058-1.1594-1.7099-1.5084-1.9766 2e-5 -0.06056 3e-3 -0.21288 0.0403-0.54467 0.0369-0.3272 0.0685-0.47954 0.0827-0.54105 0.40014-0.18263 1.3279-0.63679 1.9094-1.5885 0.61929-1.0136 0.75344-2.0829 0.75344-3.3533 0-1.2704-0.13416-2.3371-0.75344-3.3507-0.58154-0.95179-1.5093-1.4084-1.9094-1.5911-0.0142-0.06152-0.0458-0.21386-0.0827-0.54105-0.0374-0.33179-0.0403-0.48411-0.0403-0.54467 0.34904-0.26674 1.153-0.91861 1.5084-1.9766 0.37822-1.126 0.27182-2.1964-0.0109-3.4349-0.28269-1.2385-0.6502-2.2508-1.4795-3.1011-0.77914-0.79892-1.7865-1.0361-2.2169-1.125-0.0271-0.05559-0.0915-0.19544-0.20103-0.5085-0.10619-0.30347-0.14493-0.45864-0.15916-0.524 0.28157-0.33876 0.91951-1.1517 1.0304-2.2608 0.11818-1.1819-0.22446-2.2004-0.77566-3.345s-1.1344-2.0504-2.1322-2.6949c-0.93791-0.60585-1.9753-0.61416-2.4143-0.60513-0.0406-0.04939-0.13587-0.17298-0.30902-0.44855-0.1725-0.27453-0.24265-0.41351-0.26975-0.47181 0.19849-0.39124 0.64127-1.3276 0.50229-2.436-0.14777-1.1786-0.71222-2.097-1.5043-3.0903-0.79208-0.99323-1.5592-1.7481-2.6753-2.1544-1.0477-0.38142-2.0575-0.15584-2.4846-0.04909-0.0531-0.04118-0.17643-0.14336-0.40411-0.37104-0.23348-0.23348-0.33227-0.35274-0.37104-0.40204 0.10658-0.42618 0.33016-1.4378-0.0517-2.4867-0.40632-1.1161-1.1586-1.8863-2.1518-2.6784-0.99323-0.79208-1.9117-1.3534-3.0902-1.5012-1.1073-0.13884-2.0426 0.303-2.4345 0.50178-0.05673-0.02692-0.19476-0.09728-0.47336-0.27234-0.27366-0.17195-0.40193-0.27024-0.45424-0.31316 0.0088-0.44183 0.0043-1.4723-0.59945-2.4071-0.64449-0.99772-1.5503-1.581-2.6949-2.1322-1.1446-0.5512-2.1662-0.89437-3.3481-0.77618-1.1102 0.11102-1.9223 0.74984-2.2603 1.0309-0.0622-0.01371-0.2131-0.05128-0.52142-0.15916-0.31306-0.10954-0.45291-0.17392-0.5085-0.20102-0.08893-0.43039-0.32607-1.4378-1.125-2.2169-0.85035-0.8293-1.8626-1.1968-3.1011-1.4795-1.2385-0.28269-2.3121-0.39216-3.438-0.01395-1.0575 0.35523-1.7049 1.1605-1.972 1.51-0.06451 7.25e-4 -0.22111-0.0026-0.54622-0.03927-0.32932-0.03711-0.48213-0.06891-0.54364-0.08372-0.18301-0.40066-0.63729-1.3298-1.5885-1.911-1.0136-0.61928-2.0803-0.75086-3.3507-0.75086zm-0.0021 7.7365c1.4635-1e-6 2.9099 0.0732 4.3362 0.21342 0.18004 0.02923 0.36327 0.05574 0.5519 0.077 0.19961 0.02249 0.39429 0.03805 0.58653 0.04961 2.862 0.35705 5.6367 0.9916 8.2982 1.8738 0.20826 0.0878 0.42171 0.17216 0.64596 0.25063 0.23248 0.08135 0.46032 0.15074 0.68575 0.21342 2.641 0.97182 5.1622 2.1901 7.5344 3.6292 0.18784 0.13569 0.38168 0.26925 0.58808 0.39894 0.19446 0.12219 0.38724 0.23288 0.57929 0.33796 2.38 1.5488 4.5987 3.3236 6.627 5.2937 0.13867 0.1555 0.28245 0.31035 0.43667 0.46457s0.30907 0.298 0.46457 0.43667c1.9696 2.0277 3.7442 4.2457 5.2927 6.6249 0.1054 0.19272 0.21638 0.3857 0.339 0.58084 0.13001 0.20691 0.26358 0.40188 0.39946 0.59014 1.4383 2.3712 2.6567 4.8907 3.6282 7.5303 0.0628 0.22625 0.13229 0.45447 0.21394 0.68781 0.0787 0.22479 0.16311 0.4393 0.25115 0.64802 0.88224 2.6621 1.517 5.4376 1.8738 8.3003 0.0115 0.19106 0.0267 0.38457 0.0491 0.58291 0.0213 0.18881 0.0477 0.3718 0.077 0.5519 0.14011 1.4256 0.21291 2.8708 0.21291 4.3336 0 1.4649-0.0729 2.9127-0.21343 4.3403-0.029 0.17921-0.0553 0.36109-0.0765 0.5488-0.0221 0.19654-0.0375 0.38835-0.0491 0.57774-0.35744 2.8689-0.99334 5.6504-1.8784 8.3178-0.0862 0.2051-0.16932 0.41506-0.2465 0.63562-0.08 0.22874-0.14833 0.45298-0.21032 0.67489-0.97422 2.6492-2.1968 5.1778-3.6411 7.5566-6.4e-4 0.0011-1e-3 2e-3 -2e-3 0.0031-0.13181 0.18343-0.26178 0.3726-0.38809 0.57361-0.11872 0.18895-0.22658 0.37623-0.32918 0.56276-1.5559 2.3928-3.3402 4.6226-5.3216 6.6601-0.14906 0.13374-0.29755 0.27223-0.44545 0.42013-0.1488 0.1488-0.28786 0.29767-0.4222 0.44752-2.0308 1.9746-4.2529 3.7532-6.6368 5.3051-0.1936 0.10579-0.38791 0.21737-0.58394 0.34055-0.20785 0.1306-0.40319 0.26484-0.59221 0.40153-2.368 1.4363-4.8842 2.6533-7.52 3.6241-0.22875 0.0633-0.46008 0.13342-0.69608 0.216-0.22705 0.0795-0.44305 0.16506-0.65371 0.25425-2.6679 0.88384-5.4496 1.5187-8.3189 1.8748-0.18302 0.0116-0.36842 0.0267-0.55811 0.0481-0.18404 0.0207-0.36312 0.0456-0.53898 0.0739-1.4304 0.14108-2.8812 0.21446-4.3491 0.21446-1.4677 0-2.9178-0.0729-4.3481-0.21394-0.17589-0.0283-0.3544-0.0537-0.53847-0.0744-0.19023-0.0214-0.37614-0.0364-0.55966-0.0481-2.8683-0.35601-5.6492-0.99086-8.3163-1.8743-0.21112-0.0894-0.42767-0.17513-0.65526-0.25477-0.23671-0.0828-0.46873-0.15306-0.69815-0.21652-2.6351-0.97065-5.1504-2.1875-7.5179-3.6236-0.18903-0.13669-0.38436-0.27093-0.59221-0.40153-0.19712-0.12386-0.39253-0.23582-0.58704-0.3421-2.3824-1.5512-4.603-3.3291-6.6327-5.3025-0.13473-0.15019-0.27409-0.29942-0.42323-0.44855-0.14829-0.14829-0.29703-0.28711-0.44648-0.42116-1.9753-2.0314-3.7543-4.2542-5.3067-6.6389-0.10553-0.1932-0.21701-0.38713-0.34003-0.58291-0.13112-0.20867-0.26582-0.40509-0.40308-0.5948-1.4357-2.3674-2.6521-4.8829-3.6225-7.5179-0.0633-0.2286-0.13348-0.45973-0.21601-0.69556-0.07945-0.22705-0.16506-0.44305-0.25425-0.65371-0.8834-2.6665-1.518-5.4466-1.8743-8.3142-0.01164-0.1847-0.027-0.37178-0.04858-0.56327-0.0207-0.18368-0.04565-0.3619-0.0739-0.53744-0.14123-1.4313-0.21497-2.8829-0.21497-4.3517 0-1.4666 0.07363-2.9157 0.21446-4.345 0.02846-0.17644 0.05359-0.35576 0.07441-0.54054 0.02178-0.19329 0.03693-0.38207 0.04858-0.56844 0.35562-2.8613 0.98863-5.6356 1.8691-8.2967 0.09109-0.21432 0.17847-0.43477 0.25942-0.66611 0.08413-0.24044 0.1555-0.47555 0.21962-0.70848 0.96776-2.6256 2.1797-5.1322 3.6096-7.492 0.1405-0.1935 0.27832-0.39437 0.41238-0.60772 0.1269-0.20197 0.24158-0.40159 0.34985-0.601 1.545-2.3712 3.3142-4.5821 5.2777-6.6037 0.15591-0.13898 0.31099-0.28308 0.4656-0.4377 0.15465-0.15465 0.29856-0.31018 0.4377-0.46612 2.027-1.9689 4.2445-3.742 6.6229-5.2901 0.19304-0.1056 0.38678-0.21712 0.58239-0.34003 0.2064-0.12969 0.40023-0.26326 0.58808-0.39894 2.3717-1.4388 4.892-2.657 7.5324-3.6287 0.2261-0.06282 0.45463-0.13235 0.68781-0.21394 0.22486-0.07868 0.43872-0.16359 0.6475-0.25166 2.6606-0.88176 5.4346-1.5158 8.2956-1.8728 0.19274-0.01155 0.38793-0.02706 0.58808-0.04961 0.18881-0.02127 0.3717-0.04773 0.5519-0.077 1.4259-0.14016 2.8715-0.21342 4.3346-0.21342z" filter="url(#c)" stroke="#160d1d" stroke-width="2.1167"/>
<path d="m87.243 89.725c-0.59536 0.25418-1.1147 0.65996-1.5194 1.137l-0.04703 0.05433-13.608 18.832-0.05103 0.0898c-0.61576 1.085-0.89476 2.4764-0.3742 3.6957 0.52717 1.2348 1.8488 2.1742 3.1688 2.3276l22.768 3.164c0.65834 0.10292 1.3591 2e-3 1.9544-0.25227 0.8887-0.37941 1.6521-1.1351 2.0488-2.0108 0.4236-0.93509 0.41673-2.1089 0.0195-3.0392-0.49856-1.1678-1.687-2.0556-2.9075-2.2986l-0.0582-0.011-0.0561-8e-3 -16.789-2.2613 9.9932-13.706 0.01407-0.02157c0.73563-1.0661 0.87478-2.6074 0.3687-3.7928-0.37941-0.88871-1.1894-1.6907-2.1294-2.0172-0.89781-0.31185-1.9417-0.24594-2.7949 0.11832z" stroke="#160d1d" stroke-width="2.1167"/>
<path d="m8.2164 73.411c-0.037437 0.92697 0.27326 1.9268 0.88368 2.6552 0.63913 0.76274 1.6771 1.2345 2.6426 1.2735 1.2879 0.05202 2.6792-0.62554 3.4145-1.6919l0.01268-0.02071 9.2646-14.208 8.1029 14.939 0.03108 0.04989c0.66069 1.0546 1.9127 1.8502 3.1815 1.9014 1.0107 0.04082 2.1104-0.36918 2.834-1.0973 0.67766-0.68186 1.115-1.6638 1.154-2.6293 0.02506-0.6204-0.09585-1.3133-0.46087-1.9193l-11.063-20.195 0.01812 0.03797c-0.61219-1.1794-1.9598-2.0807-3.3013-2.1349-1.3247-0.05351-2.5264 0.70309-3.3219 1.6641l-0.06364 0.0776-0.05612 0.08359-12.714 19.327-0.035654 0.06268c-0.30212 0.54778-0.4975 1.1773-0.52362 1.8242z" stroke="#160d1d" stroke-width="2.1167"/>
<path d="m72.871 36.644c0.51054 0.398 1.117 0.65608 1.7303 0.77945l0.07032 0.01483 23.066 2.7955 0.10323 0.0013c1.2474 0.01383 2.6001-0.41537 3.4153-1.461 0.82547-1.0589 1.008-2.6701 0.5034-3.8994l-8.2491-21.455c-0.22852-0.62592-0.65602-1.1903-1.1666-1.5883-0.7621-0.5941-1.7928-0.89642-2.7511-0.81979-1.0233 0.08183-2.0472 0.65588-2.6691 1.4536-0.78068 1.0014-0.98248 2.4711-0.60454 3.6568l0.01838 0.05629 0.02023 0.05307 6.1459 15.787-16.83-2.1123-0.02571-0.0022c-1.289-0.12781-2.7051 0.49627-3.4976 1.5128-0.5941 0.76209-0.90399 1.859-0.73482 2.8396 0.16157 0.93659 0.7244 1.8182 1.4561 2.3886z" stroke="#160d1d" stroke-width="2.1167"/>
</g>
</svg>